<svg xmlns="http://www.w3.org/2000/svg" viewBox="0 0 640 640" role="img">
  <defs>
    <linearGradient id="bg" x1="0" x2="1" y1="0" y2="1">
      <stop offset="0" stop-color="#2563eb"/>
      <stop offset="0.55" stop-color="#14b8a6"/>
      <stop offset="1" stop-color="#f59e0b"/>
    </linearGradient>
    <linearGradient id="shirt" x1="0" x2="1">
      <stop offset="0" stop-color="#0f172a"/>
      <stop offset="1" stop-color="#1e293b"/>
    </linearGradient>
  </defs>
  <rect width="640" height="640" rx="44" fill="url(#bg)"/>
  <circle cx="508" cy="118" r="70" fill="#fff" opacity=".16"/>
  <circle cx="105" cy="504" r="96" fill="#fff" opacity=".12"/>
  <path d="M154 563c31-116 102-174 166-174s135 58 166 174" fill="url(#shirt)"/>
  <circle cx="320" cy="272" r="116" fill="#f3c7a6"/>
  <path d="M200 266c5-100 61-165 146-150 84 15 111 75 94 156-49-2-88-24-120-70-24 44-63 66-120 64z" fill="#111827"/>
  <path d="M222 338c34 54 78 81 132 81s94-27 119-81c-21 84-73 126-156 126-62 0-107-42-135-126z" fill="#eab08d" opacity=".55"/>
  <circle cx="277" cy="280" r="10" fill="#111827"/>
  <circle cx="365" cy="280" r="10" fill="#111827"/>
  <path d="M286 338c25 20 53 20 82 0" fill="none" stroke="#7f1d1d" stroke-width="10" stroke-linecap="round"/>
  <rect x="104" y="86" width="158" height="54" rx="14" fill="#fff" opacity=".9"/>
  <rect x="125" y="105" width="80" height="16" rx="8" fill="#2563eb"/>
  <rect x="226" y="105" width="18" height="16" rx="8" fill="#14b8a6"/>
</svg>
